<?xml version="1.0" encoding="utf-8"?>
<!-- Generator: Adobe Illustrator 27.0.1, SVG Export Plug-In . SVG Version: 6.00 Build 0)  -->
<svg version="1.1" id="Layer_1" xmlns="http://www.w3.org/2000/svg" xmlns:xlink="http://www.w3.org/1999/xlink" x="0px" y="0px"
	 viewBox="0 0 144 144" style="enable-background:new 0 0 144 144;" xml:space="preserve">
<style type="text/css">
	.st0{fill:#F8ABA0;}
	.st1{opacity:0.4;fill:#E9BEB9;}
	.st2{stroke:#FFFFFF;stroke-miterlimit:10;}
	.st3{fill:none;}
	.st4{fill:#9B1C20;}
	.st5{fill:#CF223C;}
	.st6{fill:#CC2353;}
	.st7{fill:#CC2352;}
	.st8{fill:#CC2351;}
	.st9{fill:#CC2350;}
	.st10{fill:#CD234F;}
	.st11{fill:#CD234E;}
	.st12{fill:#CD234D;}
	.st13{fill:#CD234C;}
	.st14{fill:#CD234B;}
	.st15{fill:#CD234A;}
	.st16{fill:#CD2349;}
	.st17{fill:#CE2349;}
	.st18{fill:#CE2348;}
	.st19{fill:#CE2347;}
	.st20{fill:#CE2247;}
	.st21{fill:#CE2246;}
	.st22{fill:#CE2245;}
	.st23{fill:#CE2244;}
	.st24{fill:#CE2243;}
	.st25{fill:#CE2242;}
	.st26{fill:#CF2241;}
	.st27{fill:#CF2240;}
	.st28{fill:#CF223F;}
	.st29{fill:#CF223E;}
	.st30{fill:#CF223D;}
	.st31{fill:#CF223B;}
	.st32{fill:#D0223A;}
	.st33{fill:#D02239;}
	.st34{fill:#D02238;}
	.st35{fill:#D02237;}
	.st36{fill:#D02136;}
	.st37{fill:#D02135;}
	.st38{fill:#D02134;}
	.st39{fill:#D02133;}
	.st40{fill:#D12133;}
	.st41{fill:#D12132;}
	.st42{fill:#D12131;}
	.st43{fill:#D12130;}
	.st44{fill:#D1212F;}
	.st45{fill:#D1212E;}
	.st46{fill:#D1212D;}
	.st47{fill:#D1212C;}
	.st48{fill:#D1202B;}
	.st49{fill:#D2202B;}
	.st50{fill:#D2202A;}
	.st51{fill:#D22029;}
	.st52{fill:#D22028;}
	.st53{fill:#D22027;}
</style>
<g>
	<g>
		<path class="st5" d="M44.34,15.07l2.88,7.2l0.22-0.09c0.32-2.04,1.39-3.03,4.69-4.35c3.28-1.31,5.27-1.69,6.76-1.28
			c1.68,0.46,2.59,1.59,3.97,5.04c1.32,3.3,1.53,4.78,0.8,6.21c-0.7,1.42-2.39,2.55-5.81,3.92c-3.7,1.48-5.12,1.56-6.77,0.31
			l-0.25,0.1l0.7,1.74l-4.68,1.87l-7.48-18.68L44.34,15.07z M48.99,24c-0.53,0.7-0.49,1.46,0.2,3.17c0.75,1.88,1.28,2.38,2.42,2.31
			c0.69-0.05,2.01-0.42,3.33-0.94c1.79-0.72,2.92-1.4,3.29-2c0.4-0.62,0.31-1.42-0.35-3.07c-0.71-1.76-1.23-2.27-2.28-2.27
			c-0.73,0.03-1.99,0.38-3.34,0.92C50.52,22.8,49.41,23.44,48.99,24z"/>
		<path class="st5" d="M87.63,26.07c-0.9,3.87-2.96,4.57-10.53,3.59c-4.1-0.53-6-1.14-7.16-2.27c-1.24-1.22-1.48-2.68-1.01-6.3
			c0.49-3.8,1.09-5.15,2.72-6c1.5-0.78,3.3-0.85,7.91-0.25c4.79,0.62,6.42,1.14,7.57,2.35c1.12,1.21,1.39,2.86,0.98,6.06
			c-0.02,0.18-0.11,0.84-0.22,1.43l-13.82-1.79c-0.19,1.44-0.1,1.93,0.36,2.39c0.51,0.49,1.6,0.82,3.51,1.06
			c3.38,0.44,4.04,0.28,4.41-0.95L87.63,26.07z M82.98,21.09c0.11-1.11,0.09-1.39-0.2-1.76c-0.41-0.57-1.46-0.92-3.56-1.19
			c-3.56-0.46-4.46-0.12-4.77,1.84L82.98,21.09z"/>
		<path class="st5" d="M95.67,23.9c1.35-1.59,2.57-2.08,4.39-1.76c1.34,0.27,3.49,1.51,6.95,4.03c3.77,2.76,4.52,3.57,4.79,5.25
			c0.16,1.31-0.24,2.37-1.77,4.46l-5.07,6.94l-4.14-3.02l1.16-1.58l-0.17-0.12c-0.92,0.49-1.68,0.56-2.69,0.31
			c-0.92-0.22-2.09-0.93-4.88-2.97c-3.82-2.79-4.39-4.52-2.4-7.24c1.51-2.07,3.13-2.64,5.13-1.85c1.26,0.47,2.43,1.22,5.6,3.53
			c2,1.46,2.46,2.06,2.6,3.28l0.19,0.14l0.45-0.61c1.32-1.8,1.15-2.29-1.45-4.2c-3.09-2.26-3.48-2.39-4.37-1.44L95.67,23.9z
			 M96.4,30.97c-0.68,0.92-0.21,1.67,2.1,3.36c3.04,2.22,4.11,2.55,4.85,1.53c0.34-0.46,0.32-1-0.04-1.53
			c-0.2-0.29-0.86-0.82-2.69-2.15C98,30.27,97.1,30.02,96.4,30.97z"/>
		<path class="st5" d="M122.09,43.86l-1.97,0.91l0.11,0.25c2.08,0.11,3.39,1.29,4.84,4.44c1.43,3.09,1.72,4.89,1.08,6.58
			c-0.69,1.75-1.56,2.45-5.12,4.09l-5.89,2.72L112.9,58l5.89-2.72c2.08-0.96,2.51-1.26,2.76-2c0.28-0.76,0.04-1.78-0.79-3.59
			c-0.82-1.78-1.51-2.62-2.38-2.92c-0.91-0.31-1.56-0.14-3.94,0.96l-5.18,2.39l-2.24-4.85l12.96-5.98L122.09,43.86z"/>
		<path class="st5" d="M135.21,72.68l-10.47-0.69l-0.08,1.14l4.31,5.18l-0.47,7.13l-6.13-7.81l-8.16,7.86l0.47-7.07l6.09-5.34
			l0.09-1.35l-5.72-0.38l0.35-5.33l20.07,1.32L135.21,72.68z"/>
		<path class="st5" d="M115.54,108.69c-1.66,0.67-2.97,0.33-6.02-1.57c-3.33-2.06-4.27-3.07-4.51-4.75
			c-0.23-1.74,0.45-3.41,3.23-7.9c2.81-4.54,4-5.89,5.67-6.46c1.62-0.56,2.92-0.14,6.44,2.04c2.85,1.76,3.78,2.84,3.9,4.58
			c0.12,1.64-0.69,3.58-3.25,7.71C118.42,106.5,117.06,108.07,115.54,108.69z M117.05,94.29c-1.62-1-2.28-1.13-3.12-0.52
			c-0.61,0.41-1.37,1.35-2.27,2.81c-2.13,3.43-2.06,4.29,0.5,5.88c1.64,1.02,2.39,1.13,3.25,0.49c0.58-0.42,1.38-1.42,2.17-2.7
			C119.72,96.8,119.64,95.9,117.05,94.29z"/>
		<path class="st5" d="M103.53,120.03l-1.04-1.9l-0.24,0.13c0.04,2.08-1.06,3.47-4.1,5.13c-2.99,1.64-4.75,2.06-6.49,1.53
			c-1.79-0.57-2.55-1.39-4.43-4.83l-3.12-5.69l4.68-2.57l3.12,5.69c1.1,2.01,1.43,2.42,2.19,2.62c0.78,0.23,1.78-0.08,3.52-1.04
			c1.72-0.94,2.51-1.69,2.75-2.57c0.25-0.93,0.04-1.57-1.23-3.87l-2.74-5l4.68-2.57l6.86,12.51L103.53,120.03z"/>
		<path class="st5" d="M61.43,114.83l5.04,0.08l-0.03,1.87l0.27,0c1.05-1.7,2.48-2.19,6.34-2.13s5.69,0.49,6.91,1.62
			c1.16,1.11,1.5,2.56,1.44,6.12c-0.06,3.62-0.66,5.33-2.19,6.3c-1.31,0.82-2.79,1.04-6.47,0.98c-3.74-0.06-4.97-0.57-5.96-2.39
			l-0.21,0l-0.13,7.75l-5.34-0.09L61.43,114.83z M76.05,122.37c0.05-3.14-0.54-3.63-4.55-3.7c-1.96-0.03-3.41,0.18-4.02,0.6
			c-0.61,0.38-0.83,1.13-0.86,2.79c-0.05,2.96,0.63,3.51,4.43,3.57C75.27,125.71,76,125.24,76.05,122.37z"/>
		<path class="st5" d="M46.08,106.62l-1.1,1.84l0.23,0.14c1.62-1.14,3.43-0.87,6.52,0.97c2.85,1.7,4.09,3.03,4.54,4.81
			c0.44,1.8,0.11,2.88-1.88,6.22l-3.34,5.6l-4.59-2.73l3.34-5.6c1.06-1.79,1.28-2.44,1.06-3.2c-0.23-0.84-0.84-1.42-2.58-2.45
			c-1.63-0.97-2.57-1.29-3.43-1.13c-0.99,0.18-1.53,0.74-2.89,3.02l-2.93,4.92l-4.59-2.73l7.3-12.25L46.08,106.62z"/>
		<path class="st5" d="M24.96,88.05c2.1-1.12,3.14-1.38,4.42-1.04c1.88,0.48,3.07,1.8,5.89,6.65c2.2,3.78,2.86,5.52,2.69,7.26
			c-0.14,1.68-1.24,2.85-4.5,4.74c-2.97,1.73-4.49,2.12-6.01,1.54c-1.65-0.61-2.87-2.06-5.3-6.23c-2.38-4.09-3.12-6.07-2.83-7.81
			c0.21-1.45,0.97-2.34,3.25-3.77l2.73,4.69c-1.32,0.98-1.25,2.16,0.32,4.87c1.87,3.21,2.71,3.52,5.29,2.02
			c1.62-0.94,2.09-1.57,1.94-2.6c-0.08-0.68-0.53-1.75-1.24-2.97c-1.58-2.71-2.4-3.28-3.93-2.67L24.96,88.05z"/>
		<path class="st5" d="M11.6,76.36l3.28-0.2l-0.52-8.43l3.82-0.24l0.52,8.43l4.15-0.26c1.57-0.1,1.77-0.14,2.12-0.4
			c0.46-0.3,0.64-0.86,0.58-1.88c-0.07-1.08-0.31-1.67-0.84-1.88c-0.34-0.16-0.46-0.18-1.94-0.09l-0.3-4.88
			c2.71-0.11,3.6,0.05,4.7,0.8c1.42,1,1.97,2.6,2.2,6.27c0.21,3.4-0.01,4.81-0.96,5.92c-0.71,0.8-1.47,1.15-3.09,1.31
			c-0.24,0.04-0.96,0.09-2.13,0.16l-4.16,0.26l0.17,2.8l-3.82,0.24l-0.17-2.8l-3.28,0.2L11.6,76.36z"/>
		<path class="st5" d="M19.86,59.51c-1.85-0.97-2.6-2.04-2.69-3.89c-0.04-1.36,0.7-3.74,2.4-7.67c1.86-4.29,2.48-5.2,4.07-5.83
			c1.25-0.45,2.36-0.29,4.74,0.74l7.89,3.41l-2.04,4.71l-1.8-0.78l-0.08,0.19c0.68,0.79,0.92,1.52,0.9,2.56
			c-0.02,0.95-0.44,2.24-1.82,5.42c-1.88,4.35-3.44,5.28-6.54,3.94c-2.35-1.02-3.27-2.47-2.94-4.59c0.18-1.33,0.65-2.64,2.21-6.24
			c0.98-2.27,1.46-2.85,2.63-3.27l0.1-0.22l-0.69-0.3c-2.05-0.89-2.49-0.62-3.77,2.34c-1.52,3.52-1.57,3.92-0.44,4.58L19.86,59.51z
			 M26.6,57.23c1.05,0.46,1.68-0.16,2.82-2.79c1.5-3.46,1.58-4.57,0.42-5.08c-0.53-0.23-1.05-0.09-1.48,0.38
			c-0.24,0.26-0.61,1.02-1.5,3.1C25.56,55.83,25.52,56.76,26.6,57.23z"/>
	</g>
	<circle class="st5" cx="35.08" cy="34.75" r="2.25"/>
</g>
</svg>
